<svg width="18" height="18" viewBox="0 0 18 18" fill="none" xmlns="http://www.w3.org/2000/svg">
<path d="M9.77503 1.60039C10.4637 1.60039 10.7685 1.60099 11.0199 1.6235C13.8145 1.87371 16.0293 4.08853 16.2796 6.88317C16.3021 7.13454 16.3027 7.43933 16.3027 8.12803V8.91999C16.3027 9.25136 16.5713 9.51999 16.9027 9.51999C17.234 9.51999 17.5027 9.25136 17.5027 8.91999V8.08768C17.5027 7.45016 17.5027 7.08786 17.4748 6.77616C17.1728 3.40331 14.4997 0.73026 11.1269 0.428281C10.8152 0.400372 10.4529 0.400379 9.8153 0.400391H8.98307C8.6517 0.400391 8.38307 0.669022 8.38307 1.00039C8.38307 1.33176 8.6517 1.60039 8.98307 1.60039L9.77503 1.60039Z" fill="#F7F9FB"/>
<path fill-rule="evenodd" clip-rule="evenodd" d="M5.07245 2.62063C4.23077 1.84724 2.93705 1.84724 2.09538 2.62063C2.06091 2.6523 2.02412 2.6891 1.97634 2.73689L1.25834 3.4549C0.535845 4.17739 0.23255 5.21892 0.4542 6.21635C1.71178 11.8754 6.1314 16.2951 11.7905 17.5526C12.7879 17.7743 13.8295 17.471 14.5519 16.7485L15.2699 16.0306C15.3177 15.9828 15.3545 15.9459 15.3862 15.9115C16.1596 15.0698 16.1596 13.7761 15.3862 12.9344C15.3545 12.8999 15.3177 12.8631 15.2699 12.8153L14.0945 11.6399C13.2784 10.8238 12.046 10.5904 10.988 11.0516C10.3823 11.3156 9.67675 11.1819 9.20954 10.7147L7.2921 8.7973C6.82489 8.3301 6.69127 7.62454 6.95529 7.01886C7.41645 5.96089 7.18306 4.72846 6.36697 3.91238L5.19151 2.73691C5.14372 2.68911 5.10692 2.65231 5.07245 2.62063ZM2.90731 3.50425C3.28989 3.15271 3.87794 3.15271 4.26052 3.50425C4.27373 3.51638 4.29103 3.5335 4.35189 3.59435L5.51845 4.76091C5.98565 5.22811 6.11927 5.93367 5.85525 6.53935C5.39409 7.59732 5.62748 8.82975 6.44357 9.64583L8.36101 11.5633C9.1771 12.3794 10.4095 12.6128 11.4675 12.1516C12.0732 11.8876 12.7787 12.0212 13.2459 12.4884L14.4125 13.655C14.4733 13.7158 14.4905 13.7331 14.5026 13.7463C14.8541 14.1289 14.8541 14.717 14.5026 15.0995C14.4905 15.1127 14.4733 15.1301 14.4125 15.1909L13.7034 15.9C13.271 16.3324 12.6477 16.5139 12.0508 16.3812C6.84655 15.2247 2.78213 11.1603 1.62562 5.95603C1.49298 5.35912 1.67449 4.73581 2.10686 4.30343L2.81594 3.59435C2.87679 3.5335 2.8941 3.51638 2.90731 3.50425Z" fill="#F7F9FB"/>
<path d="M9.54867 3.22882C9.21729 3.22882 8.94866 3.49745 8.94866 3.82882C8.94866 4.16019 9.21729 4.42882 9.54867 4.42882H10.0012C10.0099 4.42882 10.018 4.42882 10.0255 4.42882C10.0781 4.42883 10.1025 4.42888 10.1228 4.42917C11.9625 4.45551 13.4475 5.94047 13.4738 7.78013C13.4741 7.80339 13.4741 7.83196 13.4741 7.90175V8.3543C13.4741 8.68567 13.7428 8.9543 14.0741 8.9543C14.4055 8.9543 14.6741 8.68567 14.6741 8.3543V7.89595C14.6741 7.88817 14.6741 7.88078 14.6741 7.87373C14.6741 7.82439 14.6741 7.79182 14.6737 7.76294C14.638 5.27399 12.629 3.26494 10.14 3.22929C10.107 3.22882 10.0692 3.22882 10.007 3.22882H9.54867Z" fill="#F7F9FB"/>
</svg>
