<svg width="17" height="16" viewBox="0 0 17 16" fill="none" xmlns="http://www.w3.org/2000/svg">
<path fill-rule="evenodd" clip-rule="evenodd" d="M16.1744 14.3995V8.79951H14.5744V14.3995H1.77444V1.59951H7.37444V-0.000488281H1.77444C0.890783 -0.000488281 0.174438 0.715856 0.174438 1.59951V14.3995C0.174438 15.2832 0.890783 15.9995 1.77444 15.9995H14.5744C15.4581 15.9995 16.1744 15.2832 16.1744 14.3995ZM13.9169 0.578412C13.5502 0.208809 13.0481 -0.000326509 12.5243 -0.000326509C12.0011 -0.000326509 11.4996 0.208337 11.1308 0.579376L4.43565 7.27441C3.83739 7.80154 3.44521 8.58594 3.37705 9.42951L3.37446 12.0015V12.8015H6.68214C7.58958 12.7393 8.38168 12.3433 8.94046 11.6987L15.5977 5.04434C15.967 4.675 16.1745 4.17407 16.1745 3.65174C16.1745 3.12941 15.967 2.62847 15.5977 2.25913L13.9169 0.578412ZM6.62565 11.2039C7.05303 11.1736 7.45085 10.9747 7.7703 10.6093L12.6199 5.75971L10.4165 3.55615L5.53134 8.43967C5.20722 8.72634 5.00671 9.12739 4.97446 9.49427V11.2024L6.62565 11.2039ZM11.548 2.42496L13.7513 4.62834L14.4663 3.9133C14.5356 3.84402 14.5745 3.75005 14.5745 3.65207C14.5745 3.55408 14.5356 3.46012 14.4663 3.39083L12.7834 1.70789C12.7149 1.63884 12.6216 1.6 12.5243 1.6C12.4271 1.6 12.3338 1.63884 12.2653 1.70789L11.548 2.42496Z" fill="#484848"/>
</svg>
