<svg width="6" height="4" viewBox="0 0 6 4" fill="none" xmlns="http://www.w3.org/2000/svg">
<path fill-rule="evenodd" clip-rule="evenodd" d="M0.168746 0.0910325C0.35697 -0.0577912 0.625892 -0.0202002 0.769401 0.174996L2.90789 3.0837C2.96113 3.12025 3.03887 3.12025 3.09211 3.0837L5.2306 0.174996C5.37411 -0.0202002 5.64303 -0.0577912 5.83125 0.0910325C6.01948 0.239857 6.05573 0.518739 5.91222 0.713935L3.76635 3.63268C3.74131 3.66674 3.70341 3.71388 3.65092 3.75898C3.27694 4.08034 2.72307 4.08034 2.34908 3.75898C2.29659 3.71388 2.25869 3.66674 2.23365 3.63268L0.0877812 0.713935C-0.0557273 0.518739 -0.0194782 0.239856 0.168746 0.0910325Z" fill="#484848"/>
</svg>
