<svg width="239" height="50" viewBox="0 0 239 50" fill="none" xmlns="http://www.w3.org/2000/svg">
<path fill-rule="evenodd" clip-rule="evenodd" d="M19.001 11.24C20.2463 11.2798 21.4923 11.2998 22.7384 11.2998C23.9861 11.2998 25.2335 11.2798 26.4806 11.2398V0.232958L27.2299 0.190352C29.4757 0.0630186 31.7251 0 33.9745 0C36.2224 0 38.4702 0.0626946 40.7144 0.189866L41.4636 0.23231V9.75994C42.4893 9.58693 43.5125 9.39917 44.5326 9.19569L45.4821 9.00615V22.6276L44.8407 22.7533C37.5712 24.1789 30.1446 24.8595 22.7384 24.8595C17.9094 24.8595 13.0777 24.5696 8.28541 23.9741V23.9851L7.38581 23.8648C6.48476 23.7441 5.58533 23.6114 4.68768 23.4687C4.54738 23.4465 4.40725 23.424 4.26712 23.4013V28.3469C10.3652 29.36 16.5582 29.8441 22.7384 29.8441C24.2408 29.8441 25.7429 29.8154 27.2287 29.7582C27.6875 29.7317 28.147 29.7179 28.6061 29.697C29.0393 29.6772 29.4718 29.651 29.9047 29.6242L30.7479 29.5719V45.6886C31.8231 45.7181 32.8988 45.733 33.9746 45.733C35.0487 45.733 36.1229 45.7183 37.1965 45.6886V25.0552L37.8705 24.952C38.7587 24.8159 39.6453 24.6686 40.5299 24.5105L41.4638 24.3436V49.7682L40.7146 49.8106C38.4703 49.9376 36.2224 50.0005 33.9746 50.0005C31.7252 50.0005 29.4757 49.9375 27.23 49.8101L26.4808 49.7675V34.0535C25.2337 34.0924 23.9863 34.1119 22.7385 34.1119C15.3339 34.1119 7.90908 33.4316 0.641364 32.0068L0 31.8811V18.3003L0.949491 18.4899C1.96961 18.6934 2.99282 18.8813 4.01845 19.054V0.233768L4.76771 0.191162C7.01353 0.0638286 9.26293 0.000810008 11.5123 0.000810008C13.7601 0.000810008 16.0079 0.0635046 18.2521 0.190676L19.0013 0.23312V11.241L19.001 11.24ZM64.8991 37.4726V12.4589H70.4687V22.3074H81.2762V12.4589H86.8458V37.4825C86.2898 37.4919 85.7317 37.4966 85.1717 37.4966C83.8624 37.4966 82.5633 37.4705 81.2762 37.4191V27.5082H70.4687V37.5325C70.2732 37.5361 70.0775 37.5388 69.8816 37.5411H67.593C66.6897 37.5306 65.7914 37.5077 64.8991 37.4726ZM100.878 26.6146H107.481L104.161 17.1351L100.878 26.6146ZM108.036 12.5713L117.193 37.4831C116.564 37.4953 115.933 37.5014 115.298 37.5014C113.944 37.5014 112.6 37.4734 111.27 37.4185L109.214 31.5572H99.1446L97.1067 37.4818C96.4552 37.4948 95.8011 37.5014 95.1443 37.5014C93.877 37.5014 92.6197 37.4769 91.3731 37.4288L100.471 12.5715C101.722 12.523 102.984 12.4984 104.255 12.4984C105.526 12.4984 106.786 12.523 108.036 12.5713ZM138.557 37.4314L127.142 20.9547V37.5066C126.565 37.5168 125.987 37.5218 125.406 37.5218C124.168 37.5218 122.939 37.4985 121.72 37.4526V12.5592C123.037 12.5055 124.365 12.478 125.705 12.478C126.384 12.478 127.06 12.4851 127.734 12.4989L139.204 28.885V12.5503C140.448 12.5023 141.703 12.4778 142.968 12.4778C143.522 12.4778 144.075 12.4825 144.626 12.4918V37.5042C144.008 37.516 143.387 37.5218 142.764 37.5218C141.349 37.5218 139.947 37.4914 138.557 37.4314ZM149.153 17.4668V13.1592C152.801 12.7259 156.577 12.4983 160.442 12.4983C164.307 12.4983 168.08 12.7255 171.727 13.1586V17.4668H163.243V37.4807C162.577 37.4943 161.907 37.5011 161.234 37.5011C160.038 37.5011 158.851 37.4794 157.674 37.4364V17.4668H149.153ZM177.053 37.4552V12.5379C177.976 12.5117 178.904 12.4984 179.838 12.4984C180.772 12.4984 181.7 12.5117 182.623 12.5379V37.4679C181.773 37.4902 180.918 37.5014 180.058 37.5014C179.05 37.5014 178.048 37.4859 177.053 37.4552ZM191.632 37.4353V12.9246C194.594 12.6441 197.631 12.4981 200.727 12.4981C203.821 12.4981 206.857 12.6437 209.817 12.9242V17.1346H197.202V22.8152H209.817V27.5362H197.202V37.4808C196.545 37.4941 195.884 37.5011 195.221 37.5011C194.016 37.5011 192.819 37.4791 191.632 37.4353ZM222.835 37.4505V28.7742L213.079 12.5634C214.43 12.5067 215.795 12.4778 217.171 12.4778C217.974 12.4778 218.773 12.4877 219.568 12.507L225.712 23.2048L231.776 12.5828C233.271 12.5135 234.782 12.4778 236.307 12.4778C236.928 12.4778 237.548 12.4837 238.164 12.4955L228.404 28.7375V37.5048C227.795 37.5162 227.183 37.5218 226.569 37.5218C225.315 37.5218 224.069 37.4977 222.835 37.4505ZM8.28541 45.688C9.36061 45.7175 10.4363 45.7324 11.5122 45.7324C12.5862 45.7324 13.6603 45.7176 14.7339 45.688V34.9842L15.5766 35.0359C16.4631 35.0903 17.3499 35.1341 18.2373 35.1681L19.0012 35.1971V49.7674L18.2519 49.8098C16.0077 49.9368 13.7598 49.9997 11.5122 49.9997C9.26276 49.9997 7.01321 49.9366 4.76754 49.8093L4.01829 49.7667V33.7383L4.9357 33.8825C5.82072 34.0215 6.70735 34.1498 7.59544 34.2672L8.28557 34.3586L8.28541 45.688ZM41.2147 14.1076C40.1821 14.2738 39.1491 14.4254 38.1227 14.5615L38.0943 14.5656C37.2304 14.6798 36.3648 14.7841 35.4984 14.8784C35.5065 15.3022 35.5122 15.7258 35.5158 16.1496L35.5218 16.8691L34.8064 16.9458C34.3257 16.9977 33.8447 17.0461 33.3634 17.0918L32.5004 17.1738L32.4943 16.3069C32.4915 15.927 32.487 15.5471 32.4805 15.1674C30.7625 15.3091 29.0432 15.4127 27.3373 15.4778L27.3047 15.4796C25.7832 15.5376 24.2609 15.5664 22.7382 15.5664C21.2175 15.5664 19.6965 15.5369 18.1769 15.4796C17.2771 15.4457 16.3777 15.4016 15.4789 15.3461L14.7337 15.3001V4.31086C13.6601 4.28138 12.5861 4.26647 11.512 4.26647C10.4363 4.26647 9.36061 4.28121 8.28525 4.31086V19.6837C13.0761 20.2954 17.9089 20.5915 22.7382 20.5915C25.982 20.5915 29.2264 20.4577 32.4588 20.1846C32.4692 19.7831 32.4774 19.3815 32.4836 18.9799L32.4944 18.2681L33.2034 18.2015C33.6792 18.157 34.1549 18.1095 34.6301 18.059L35.5209 17.9642L35.5085 18.8597C35.5036 19.2024 35.4971 19.5448 35.4894 19.8875C37.4044 19.6733 39.3139 19.4091 41.2147 19.0933V14.1076ZM37.1962 10.3906V4.31086C36.1226 4.28138 35.0484 4.26647 33.9743 4.26647C32.8986 4.26647 31.8229 4.28121 30.7476 4.31086V11.0237C32.9025 10.8745 35.0534 10.6642 37.1962 10.3906Z" fill="#484848"/>
</svg>
