<svg width="12" height="15" viewBox="0 0 12 15" fill="none" xmlns="http://www.w3.org/2000/svg">
<path d="M8.22067 5.47905C8.39389 5.26408 8.36004 4.94939 8.14507 4.77617C7.9301 4.60295 7.61541 4.6368 7.44219 4.85177L6.09485 6.52389C5.8182 6.86723 5.64364 7.08195 5.49836 7.21762C5.43009 7.28137 5.38648 7.30974 5.36142 7.32228C5.34276 7.33162 5.3361 7.33157 5.33252 7.33155H5.33155C5.32797 7.33157 5.32131 7.33162 5.30265 7.32228C5.27759 7.30974 5.23398 7.28137 5.16571 7.21762C5.02044 7.08194 4.84588 6.86722 4.56923 6.52389L4.22164 6.09252C4.04842 5.87755 3.73373 5.8437 3.51876 6.01692C3.30379 6.19013 3.26994 6.50482 3.44316 6.7198L3.81245 7.17811C4.06073 7.48629 4.27978 7.75818 4.48334 7.94829C4.7019 8.1524 4.97363 8.33131 5.33204 8.33131C5.69044 8.33131 5.96217 8.1524 6.18073 7.94829C6.3843 7.75818 6.60335 7.48628 6.85163 7.1781L8.22067 5.47905Z" fill="#484848"/>
<path fill-rule="evenodd" clip-rule="evenodd" d="M5.83191 0C2.57715 0 0 2.82783 0 6.23761C0 7.33116 0.543272 8.61887 1.22679 9.82729C1.92138 11.0553 2.8079 12.2812 3.58515 13.2723L3.61108 13.3054C3.99045 13.7892 4.31364 14.2014 4.62704 14.4861C4.96895 14.7966 5.34599 15 5.83191 15C6.31784 15 6.69488 14.7966 7.03679 14.4861C7.35019 14.2014 7.67338 13.7892 8.05276 13.3054L8.07868 13.2723C8.85593 12.2812 9.74245 11.0553 10.437 9.82729C11.1206 8.61887 11.6638 7.33116 11.6638 6.23761C11.6638 2.82783 9.08668 0 5.83191 0ZM0.999757 6.23761C0.999757 3.30967 3.19708 0.999757 5.83191 0.999757C8.46675 0.999757 10.6641 3.30967 10.6641 6.23761C10.6641 7.05508 10.2378 8.14893 9.56684 9.33508C8.90698 10.5017 8.05419 11.6834 7.29197 12.6554C6.87943 13.1814 6.60781 13.5251 6.36457 13.746C6.14274 13.9475 5.99466 14.0002 5.83191 14.0002C5.66917 14.0002 5.52109 13.9475 5.29926 13.746C5.05602 13.5251 4.7844 13.1814 4.37186 12.6554C3.60964 11.6834 2.75685 10.5017 2.09699 9.33508C1.42607 8.14893 0.999757 7.05508 0.999757 6.23761Z" fill="#484848"/>
</svg>
