<svg width="12" height="12" viewBox="0 0 12 12" fill="none" xmlns="http://www.w3.org/2000/svg">
<path fill-rule="evenodd" clip-rule="evenodd" d="M10.1101 4.43306L11.1525 3.39068C11.9282 2.61502 11.9282 1.35741 11.1525 0.581749C10.3768 -0.193917 9.11923 -0.193916 8.34356 0.58175L7.28451 1.6408C7.94985 2.80854 8.92621 3.77723 10.1101 4.43306ZM5.82973 3.09558L1.47538 7.44994C1.05032 7.875 0.837787 8.08753 0.698052 8.34862C0.558317 8.60972 0.499372 8.90445 0.381481 9.4939L0.0638517 11.082C-0.00267028 11.4147 -0.0359313 11.581 0.0586767 11.6756C0.153285 11.7702 0.31959 11.7369 0.6522 11.6704L2.24035 11.3528L2.24036 11.3528C2.8298 11.2349 3.12453 11.1759 3.38562 11.0362C3.64672 10.8965 3.85925 10.6839 4.28431 10.2589L8.65153 5.89165C7.51897 5.17076 6.55729 4.21555 5.82973 3.09558Z" fill="#484848"/>
</svg>
