<svg width="12" height="12" viewBox="0 0 12 12" fill="none" xmlns="http://www.w3.org/2000/svg">
<path d="M10 3C10.5523 3 11 2.55228 11 2C11 1.44772 10.5523 1 10 1V3ZM2.75 3L10 3V1L2.75 1L2.75 3ZM2.75 5.5H6.75V3.5L2.75 3.5V5.5ZM2.5 3.25C2.5 3.11193 2.61193 3 2.75 3L2.75 1C1.50736 1 0.500004 2.00736 0.500004 3.25L2.5 3.25ZM0.500004 3.25C0.500004 4.49264 1.50736 5.5 2.75 5.5V3.5C2.61193 3.5 2.5 3.38807 2.5 3.25L0.500004 3.25Z" fill="#484848"/>
<path d="M1.5 6L1.5 3.25" stroke="#484848" stroke-width="2"/>
<path d="M1.5 4H1V4.5L1 8.5L0.999998 8.5329C0.999973 8.97615 0.999952 9.35806 1.04107 9.6639C1.08514 9.99165 1.18451 10.3058 1.43934 10.5607C1.69417 10.8155 2.00835 10.9149 2.3361 10.9589C2.64193 11 3.02384 11 3.46709 11L3.5 11L9 11L9.01599 11C9.23532 11 9.42456 11 9.58119 10.9893C9.74611 10.9781 9.91106 10.9533 10.074 10.8858C10.4416 10.7336 10.7336 10.4416 10.8858 10.074C10.9533 9.91106 10.9781 9.74611 10.9893 9.58119C11 9.42456 11 9.23532 11 9.01599L11 9V8.5H10.5H9C8.44772 8.5 8 8.05228 8 7.5C8 6.94772 8.44772 6.5 9 6.5H10.5H11V6L11 5.98401C11 5.76468 11 5.57544 10.9893 5.41881C10.9781 5.25389 10.9533 5.08894 10.8858 4.92597C10.7336 4.55843 10.4416 4.26642 10.074 4.11418C9.91106 4.04668 9.74611 4.02193 9.58119 4.01067C9.42456 3.99999 9.23532 3.99999 9.01599 4H9L1.5 4Z" fill="#484848" stroke="#484848"/>
</svg>
