<svg width="15" height="15" viewBox="0 0 15 15" fill="none" xmlns="http://www.w3.org/2000/svg">
<path d="M9.74006 6.54411C9.9025 6.34252 9.87076 6.04743 9.66917 5.885C9.46758 5.72257 9.17249 5.75431 9.01006 5.95589L7.74662 7.52388C7.4872 7.84584 7.32351 8.04719 7.18728 8.17441C7.12326 8.2342 7.08237 8.2608 7.05887 8.27256C7.04137 8.28131 7.03512 8.28127 7.03176 8.28125H7.03086C7.0275 8.28127 7.02125 8.28131 7.00376 8.27256C6.98026 8.2608 6.93936 8.2342 6.87535 8.17441C6.73912 8.04719 6.57543 7.84584 6.316 7.52388L5.99006 7.11938C5.82763 6.91779 5.53254 6.88605 5.33095 7.04848C5.12937 7.21091 5.09763 7.50601 5.26006 7.70759L5.60636 8.13737C5.83917 8.42635 6.04458 8.68132 6.23547 8.85958C6.44041 9.05098 6.69523 9.21875 7.03131 9.21875C7.3674 9.21875 7.62221 9.05098 7.82716 8.85958C8.01805 8.68131 8.22345 8.42635 8.45628 8.13735L9.74006 6.54411Z" fill="#484848"/>
<path fill-rule="evenodd" clip-rule="evenodd" d="M5.97686 0.78125C5.01324 0.78125 4.23207 1.56242 4.23207 2.52604C4.23207 2.9719 3.87064 3.33333 3.42478 3.33333H3.23174C2.2467 3.33333 1.36926 4.09545 1.4227 5.15405C1.48615 6.41093 1.76531 8.36988 2.78353 10.2255C3.06871 10.7452 3.44958 11.2557 3.86131 11.7314L3.89231 11.7673C4.4846 12.4516 4.97845 13.0223 5.50937 13.4112C6.08042 13.8296 6.68991 14.038 7.50009 14.038C8.31028 14.038 8.91977 13.8296 9.49082 13.4112C10.0217 13.0223 10.5156 12.4516 11.1079 11.7673L11.1389 11.7314C11.5506 11.2557 11.9315 10.7452 12.2167 10.2255C13.2687 8.30819 13.5311 6.14167 13.5828 4.79101C13.6232 3.73749 12.752 2.96875 11.7615 2.96875H11.3931C11.0479 2.96875 10.7681 2.68893 10.7681 2.34375C10.7681 1.4808 10.0686 0.78125 9.20562 0.78125H5.97686ZM5.16957 2.52604C5.16957 2.08019 5.53101 1.71875 5.97686 1.71875H9.20562C9.5508 1.71875 9.83062 1.99857 9.83062 2.34375C9.83062 3.20669 10.5302 3.90625 11.3931 3.90625H11.7615C12.285 3.90625 12.6636 4.29569 12.646 4.75512C12.5966 6.04558 12.3449 8.0429 11.3948 9.7745C11.1517 10.2175 10.8151 10.673 10.43 11.1179C9.7987 11.8473 9.3724 12.3358 8.93678 12.6549C8.53206 12.9514 8.1181 13.1005 7.50009 13.1005C6.88209 13.1005 6.46813 12.9514 6.06341 12.6549C5.62779 12.3358 5.20149 11.8473 4.57017 11.1179C4.18511 10.673 3.84851 10.2175 3.60542 9.7745C2.68137 8.0905 2.41866 6.28849 2.35901 5.10678C2.33631 4.65718 2.70665 4.27083 3.23174 4.27083H3.42478C4.3884 4.27083 5.16957 3.48966 5.16957 2.52604Z" fill="#484848"/>
</svg>
